/* XPM */
static const char *icon_off[] = {
/* columns rows colors chars-per-pixel */
"48 48 45 1 ",
"  c None",
". c gray19",
"X c #313131",
"o c #323231",
"O c #303333",
"+ c #313333",
"@ c #323232",
"# c #333232",
"$ c #323333",
"% c gray20",
"& c #343434",
"* c gray21",
"= c #3A3B3D",
"- c #3A3B3E",
"; c #3A3C3E",
": c gray25",
"> c #414141",
", c gray28",
"< c #484848",
"1 c #494949",
"2 c gray29",
"3 c #4B4B4B",
"4 c #4C4C4C",
"5 c #4E4E4E",
"6 c #494E56",
"7 c #4A4F57",
"8 c #4B5159",
"9 c gray37",
"0 c #687386",
"q c #6C798D",
"w c #6D798D",
"e c #6F7C91",
"r c #6F7D92",
"t c gray75",
"y c #C0C0C0",
"u c #C3C3C3",
"i c gray82",
"p c LightGray",
"a c gray84",
"s c #E7E7E7",
"d c gray91",
"f c #E9E9E9",
"g c #EAEAEA",
"h c gray92",
"j c #FEFEFE",
/* pixels */
"                                                ",
"                                                ",
"                                                ",
"  eeeeeeeeeeeeeeeeeeeeeeeeeeeeeeeeeeeeeeeeeee   ",
"  eeeeeeeeeeeeeeeeeeeeeeeeeeeeeeeeeeeeeeeeeee   ",
"  eeeq00000000000000000000000000000000000qeee   ",
"  eeq7=;;;;;;;;;;;;;;;;;;;;;;;;;;;;;;;;;=7qee   ",
"  ee0=###################################=0ee   ",
"  ee0;##:433333**333333**333333**33334:##;0ee   ",
"  ee0;#:tfffffp,,pffdfp,,pffffp,,pffffy:#;0ee   ",
"  ee0;#3sjffffp,,pffffp,,pffffp,,pffffp3#;0ee   ",
"  ee0;#3pa93333**333333**333333**33333,*#;0ee   ",
"  ee0;#*,,*#########################*,,*#;0ee   ",
"  ee0;#*,,*#########################3pp3#;0ee   ",
"  ee0;#3pp3#########################3ff3#;0ee   ",
"  ee0;#3ff3#########################3ff3#;0ee   ",
"  ee0;#3ff3#########################3ff3#;0ee   ",
"  ee0;#3ff3###################%#####3ff3#;0ee   ",
"  ee0;#3ff3###########%%%#####%%####3pp3#;0ee   ",
"  ee0;#3pp3#%#########%%%%##########*,,*#;0ee   ",
"  ee0;#*,,*########%################*,,*#;0ee   ",
"  ee0;#*,,*#######%#################3pp3#;0ee   ",
"  ee0;#3pp3##############%##########3ff3#;0ee   ",
"  ee0;#3ff3#############%%###%%%####3ff3#;0ee   ",
"  ee0;#3ff3#########################3fd3#;0ee   ",
"  ee0;#3ff3#########################3ff3#;0ee   ",
"  ee0;#3ff3#########################3pp3#;0ee   ",
"  ee0;#3pp,#########################*,,*#;0ee   ",
"  ee0;#*3943333**333333**333333**33333,*#;0ee   ",
"  ee0;##,pffffp,,pffffp,,pffffp,,pffffp3#;0ee   ",
"  ee0;##3pffffp,,pffffp,,pffffp,,pffffy:#;0ee   ",
"  ee0;##*333333**333333**333333**33334:##;0ee   ",
"  ee0=###################################=0ee   ",
"  eeq8=;;;;;;;;;;;;;;;;;;;;;;;;;;;;;;;;;=7qee   ",
"  eeeq00000000000000000000000000000000000qeee   ",
"  eeeeeeeeeeeeeeeeeeeeeeeeeeeeeeeeeeeeeeeeeee   ",
"  eeeeeeeeeeeeeeeeeeeeeeeeeeeeeeeeeeeeeeeeeee   ",
"  eeeeeeeeeeeeeeeeeeeeeeeeeeeeeeeeeeeeeeeeeee   ",
"           eeeeeeeeeeeeeeeeeeeeeeeee            ",
"           eeeeeeeeeeeeeeeeeeeeeeeee            ",
"           eeeeeeeeeeeeeeeeeeeeeeeee            ",
"           eeeeeeeeeeeeeeeeeeeeeeeee            ",
"           eeeeeeeeeeeeeeeeeeeeeeeee            ",
"           eeeeeeeeeeeeeeeeeeeeeeeee            ",
"                                                ",
"                                                ",
"                                                ",
"                                                "
};
