/* XPM */
static const char *icon_on[] = {
/* columns rows colors chars-per-pixel */
"48 48 89 1 ",
"  c None",
". c gray19",
"X c #313131",
"o c #323231",
"O c #303333",
"+ c #313333",
"@ c #323232",
"# c #333232",
"$ c #323333",
"% c gray20",
"& c #343333",
"* c #353333",
"= c #343434",
"- c #373434",
"; c gray21",
": c #3B3434",
"> c #3C3434",
", c #3A3B3D",
"< c #3A3B3E",
"1 c #3A3C3E",
"2 c #443636",
"3 c #453636",
"4 c #463636",
"5 c #493737",
"6 c #4A3737",
"7 c #4B3737",
"8 c #563939",
"9 c #623B3B",
"0 c #663B3B",
"q c #683C3C",
"w c #7B3F3F",
"e c #7E3F3F",
"r c gray25",
"t c #414141",
"y c gray28",
"u c #484848",
"i c #494949",
"p c gray29",
"a c #4B4B4B",
"s c #4C4C4C",
"d c #4E4E4E",
"f c #494E56",
"g c #4A4F57",
"h c #4B5159",
"j c gray37",
"k c #8D4242",
"l c #914343",
"z c #974444",
"x c #984444",
"c c #A44646",
"v c #A64646",
"b c #B04848",
"n c #B34848",
"m c #BE4A4A",
"M c #BF4A4A",
"N c #C24B4B",
"B c #CA4C4C",
"V c #CB4C4C",
"C c #DB4F4F",
"Z c #DD4F4F",
"A c #E45050",
"S c #E45151",
"D c #E55151",
"F c #E75151",
"G c #E85151",
"H c #EC5252",
"J c #ED5252",
"K c #F65353",
"L c #F65454",
"P c #FE5555",
"I c #FF5555",
"U c #FF5656",
"Y c #687386",
"T c #6C798D",
"R c #6D798D",
"E c #6F7C91",
"W c #6F7D92",
"Q c gray75",
"! c #C0C0C0",
"~ c #C3C3C3",
"^ c gray82",
"/ c LightGray",
"( c gray84",
") c #E7E7E7",
"_ c gray91",
"` c #E9E9E9",
"' c #EAEAEA",
"] c gray92",
"[ c #FEFEFE",
/* pixels */
"                                                ",
"                                                ",
"                                                ",
"  EEEEEEEEEEEEEEEEEEEEEEEEEEEEEEEEEEEEEEEEEEE   ",
"  EEEEEEEEEEEEEEEEEEEEEEEEEEEEEEEEEEEEEEEEEEE   ",
"  EEETYYYYYYYYYYYYYYYYYYYYYYYYYYYYYYYYYYYTEEE   ",
"  EETg,111111111111111111111111111111111,gTEE   ",
"  EEY,###################################,YEE   ",
"  EEY1##rsaaaaa;;aaaaaa;;aaaaaa;;aaaasr##1YEE   ",
"  EEY1#rQ`````/yy/``_`/yy/````/yy/````!r#1YEE   ",
"  EEY1#a)[````/yy/``_`/yy/````/yy/````/a#1YEE   ",
"  EEY1#a/(jaaaa;;aaaaaa;;aaaaaa;;aaaaay;#1YEE   ",
"  EEY1#;yy;#########################;yy;#1YEE   ",
"  EEY1#;yy;#########################a//a#1YEE   ",
"  EEY1#a//a##########*7997*#########a``a#1YEE   ",
"  EEY1#a``a#########4vDKLDv4########a``a#1YEE   ",
"  EEY1#a``a########4mIIIIIIm4#######a``a#1YEE   ",
"  EEY1#a``a########lIIIIIIIIk#######a``a#1YEE   ",
"  EEY1#a``a#######:BIIIIIIIIB>######a//a#1YEE   ",
"  EEY1#a//a#%#####7DIIIIIIIID7######;yy;#1YEE   ",
"  EEY1#;yy;#######4CIIIIIIIIZ4######;yy;#1YEE   ",
"  EEY1#;yy;#######*nIIIIIIIIn*######a//a#1YEE   ",
"  EEY1#a//a########qHIIIIIIH0#######a``a#1YEE   ",
"  EEY1#a``a#########wDIIIIGe########a``a#1YEE   ",
"  EEY1#a``a##########8xNNz8#########a`_a#1YEE   ",
"  EEY1#a``a############;;###########a``a#1YEE   ",
"  EEY1#a``a#########################a//a#1YEE   ",
"  EEY1#a//y#########################;yy;#1YEE   ",
"  EEY1#;ajsaaaa;;aaaaaa;;aaaaaa;;aaaaay;#1YEE   ",
"  EEY1##y/````/yy/````/yy/````/yy/````/a#1YEE   ",
"  EEY1##a/````/yy/````/yy/````/yy/````!r#1YEE   ",
"  EEY1##;aaaaaa;;aaaaaa;;aaaaaa;;aaaasr##1YEE   ",
"  EEY,###################################,YEE   ",
"  EETh,111111111111111111111111111111111,gTEE   ",
"  EEETYYYYYYYYYYYYYYYYYYYYYYYYYYYYYYYYYYYTEEE   ",
"  EEEEEEEEEEEEEEEEEEEEEEEEEEEEEEEEEEEEEEEEEEE   ",
"  EEEEEEEEEEEEEEEEEEEEEEEEEEEEEEEEEEEEEEEEEEE   ",
"  EEEEEEEEEEEEEEEEEEEEEEEEEEEEEEEEEEEEEEEEEEE   ",
"           EEEEEEEEEEEEEEEEEEEEEEEEE            ",
"           EEEEEEEEEEEEEEEEEEEEEEEEE            ",
"           EEEEEEEEEEEEEEEEEEEEEEEEE            ",
"           EEEEEEEEEEEEEEEEEEEEEEEEE            ",
"           EEEEEEEEEEEEEEEEEEEEEEEEE            ",
"           EEEEEEEEEEEEEEEEEEEEEEEEE            ",
"                                                ",
"                                                ",
"                                                ",
"                                                "
};
