/* XPM */
static const char *microphone_on[] = {
/* columns rows colors chars-per-pixel */
"48 48 2 1 ",
"  c None",
". c #006400",
/* pixels */
"                                                ",
"                                                ",
"                                                ",
"                                                ",
"                      ....                      ",
"                    ........                    ",
"                   ..........                   ",
"                   ..........                   ",
"                  ............                  ",
"                  ............                  ",
"                  ............                  ",
"                  ............                  ",
"                  ............                  ",
"                  ............                  ",
"                  ............                  ",
"                  ............                  ",
"                  ............                  ",
"                  ............                  ",
"                  ............                  ",
"                  ............                  ",
"                  ............                  ",
"                  ............                  ",
"          ....    ............    ....          ",
"          ....    ............    ....          ",
"          ....     ..........     ....          ",
"          .....    ..........    ....           ",
"           ....     ........     ....           ",
"           .....      ....      .....           ",
"            ....                ....            ",
"            .....              .....            ",
"             ......          ......             ",
"              .......      .......              ",
"               ..................               ",
"                ................                ",
"                  ............                  ",
"                     ......                     ",
"                      ....                      ",
"                      ....                      ",
"                      ....                      ",
"                      ....                      ",
"                      ....                      ",
"                      ....                      ",
"                                                ",
"                                                ",
"                                                ",
"                                                ",
"                                                ",
"                                                "
};
