/* XPM */
static const char *microphone_off[] = {
/* columns rows colors chars-per-pixel */
"48 48 2 1 ",
"  c None",
". c black",
/* pixels */
"                                                ",
"                                                ",
"                                                ",
"                                                ",
"                      ....                      ",
"                    ........                    ",
"        .          ..........                   ",
"       ...         ..........                   ",
"      .....       ............                  ",
"       .....      ............                  ",
"        .....     ............                  ",
"         .....     ...........                  ",
"          .....     ..........                  ",
"           .....     .........                  ",
"            .....     ........                  ",
"             .....     .......                  ",
"              .....     ......                  ",
"               .....     .....                  ",
"                .....     ....                  ",
"                 .....     ...                  ",
"                  .....     ..                  ",
"                  ......     .                  ",
"          ...     .......          ...          ",
"          ....    ........        ....          ",
"          ....     ........       ....          ",
"           ...     .........      ...           ",
"           ...      .........     ...           ",
"           ....       ........     ..           ",
"            ....          .....                 ",
"            .....          .....                ",
"             .....          .....               ",
"              ......        ......              ",
"               ....................             ",
"                 ...................            ",
"                   ..........   .....           ",
"                      ....       .....          ",
"                      ....        .....         ",
"                      ....         .....        ",
"                      ....          .....       ",
"                      ....           .....      ",
"                      ....            ...       ",
"                      ....             .        ",
"                                                ",
"                                                ",
"                                                ",
"                                                ",
"                                                ",
"                                                "
};
